<svg id="Layer_1" data-name="Layer 1" xmlns="http://www.w3.org/2000/svg" viewBox="0 0 296.63 360"><defs><style>.cls-1{fill:#231f20;}</style></defs><title>jdoyle-logo</title><path class="cls-1" d="M119.81,154.93c9.47,6.5,22.13,11.33,37.76,14.4A275.84,275.84,0,0,1,165,124.54c-15.9,14-34.81,24.92-45.14,30.39m50,29.56a242.73,242.73,0,0,0,.85,28.24c.8,8.94,1.36,17.54,1.74,25.76a167.39,167.39,0,0,0,37.78-52.18c-3.53.1-5.78.05-6.2,0h0a291,291,0,0,1-34.16-1.86m59.14.25a225.44,225.44,0,0,0,1.24,33.44c4.27,35.38,3.13,61.93,2.1,74.41,25.25-2.21,106.81-16.87,118.42-114,.08-.54,5.38-41.53-21.63-77.1C308,73.67,273,56.27,225.05,49.79a199,199,0,0,0-49.44,1.92c-34.45,5.81-59.36,19-72.1,42.39-1.49,2.72-10.43,27,2.71,47.26a42.73,42.73,0,0,0,3.17,4.26c11.38-5.76,54.79-29.07,66.92-55.42l.23-.49,11.87,5.4c0,.09-.09.18-.13.27-1.21,2.74-14.34,33.17-17.74,76a272.06,272.06,0,0,0,33.65,1.92c.2,0,4.78.1,11.63-.37.26-.69.51-1.39.76-2.1a442.53,442.53,0,0,1,8.86-62l1.42-6.24,13.49,2.83-.08,5.37a201.65,201.65,0,0,1-9.88,60.53c14.19-2.22,30.94-6.9,41.54-16.71l8.86,9.56C266.92,177,245.64,182.46,229,184.74M106,380.13c8.54,3.65,15.92,3.75,22.55.29,15.45-8.09,23.54-34.2,25.36-43.58l.09-.41c2-7.71,6-33.07,6.05-70.71-35.21,30.17-49.63,50.82-49.79,51-12.83,17.65-18,33-15.49,45.69A28.32,28.32,0,0,0,106,380.13M118.31,396a44.7,44.7,0,0,1-18-4.14l-.68-.35A41.24,41.24,0,0,1,82,365.36c-3.41-16.51,2.49-35.39,17.56-56.12.63-.93,17.56-25.28,60.2-60.35-.32-10.89-1-22.59-2.08-35a259.72,259.72,0,0,1-.88-31.35q-31.81-5.88-49.6-20.71c-15.8,10.08-24.62,21-26.23,32.52-2.08,14.87,8.64,26,8.75,26.15l-9.33,9.11c-.63-.64-15.29-15.93-12.33-37.07C70.15,177.7,80.2,164.18,98,152.28q-1.48-1.92-2.79-3.94c-17.74-27.46-5.08-57-3.13-60.52,13.93-25.2,43.48-42.66,81.7-49a208.22,208.22,0,0,1,52.91-1.94c51.69,7,89.66,26.15,113,57,30.24,40,24.3,84.62,24,86.51C348.83,304.46,226.29,306,225.05,306h-7.51l1.05-7.44c0-.31,4.36-31.81-1.32-78.84-.62-5.11-1-10.35-1.25-15.63-17.56,31.41-38.59,47.45-40.91,49.16L173,255c.78,44.7-4,75.41-6.31,84.54-.7,3.47-8.61,40.16-32.08,52.44a34.54,34.54,0,0,1-16.25,4" transform="translate(-67.68 -36)"/></svg>