<?xml version="1.0" standalone="no"?>
<!DOCTYPE svg PUBLIC "-//W3C//DTD SVG 20010904//EN"
 "http://www.w3.org/TR/2001/REC-SVG-20010904/DTD/svg10.dtd">
<svg version="1.0" xmlns="http://www.w3.org/2000/svg"
 width="432.000000pt" height="432.000000pt" viewBox="0 0 432.000000 432.000000"
 preserveAspectRatio="xMidYMid meet">
<metadata>
Created by potrace 1.11, written by Peter Selinger 2001-2013
</metadata>
<g transform="translate(0.000000,432.000000) scale(0.100000,-0.100000)"
fill="#000000" stroke="none">
<path d="M1889 4186 c-2 -2 -33 -6 -69 -10 -36 -3 -76 -8 -90 -11 -13 -2 -42
-7 -65 -10 -114 -17 -319 -82 -440 -140 -243 -117 -448 -324 -500 -506 -26
-94 -27 -100 -31 -214 -2 -74 2 -131 12 -174 16 -69 61 -175 93 -220 12 -16
21 -33 21 -38 0 -4 -23 -23 -50 -42 -67 -45 -180 -165 -217 -232 -88 -154 -92
-322 -12 -483 17 -33 43 -77 59 -96 l29 -35 53 53 c45 45 51 55 40 70 -7 9
-28 49 -47 87 -60 120 -52 231 22 345 43 64 117 139 187 186 l49 33 56 -38
c118 -80 262 -140 429 -177 l81 -19 -1 -80 c-1 -79 9 -292 17 -350 10 -74 16
-335 9 -335 -5 0 -25 -15 -45 -33 -19 -17 -67 -59 -105 -91 -110 -95 -374
-363 -456 -462 -234 -285 -325 -551 -263 -772 35 -125 134 -241 241 -283 48
-18 79 -23 164 -23 99 -1 109 1 171 31 68 33 142 97 198 170 68 89 161 307
186 438 21 107 34 188 39 245 4 36 8 79 11 95 10 62 23 362 25 605 1 18 13 35
45 58 111 84 299 301 385 446 25 42 48 76 51 76 3 0 6 -20 8 -44 1 -25 4 -54
6 -67 3 -12 7 -58 10 -102 3 -44 8 -83 10 -86 5 -10 17 -265 17 -396 1 -139
-10 -330 -22 -395 -5 -28 -5 -47 2 -51 26 -16 291 13 433 47 238 58 477 170
655 306 94 72 239 226 303 321 184 274 287 629 274 947 -22 555 -319 995 -839
1245 -152 73 -391 151 -520 170 -24 4 -45 8 -48 10 -4 2 -29 7 -56 11 -27 3
-71 10 -99 14 -48 8 -409 13 -416 6z m496 -170 c617 -117 1008 -370 1203 -778
90 -188 126 -348 126 -563 1 -130 -9 -205 -45 -347 -106 -422 -358 -733 -742
-913 -145 -68 -332 -125 -467 -141 -30 -4 -62 -8 -70 -9 -23 -3 -26 9 -20 77
12 152 -1 541 -25 723 -12 91 -17 177 -19 293 -3 139 -4 137 74 145 149 17
358 99 472 185 l47 35 -37 41 c-20 23 -43 49 -51 58 -13 15 -18 14 -59 -18
-80 -61 -246 -125 -384 -150 -43 -7 -44 -6 -22 65 49 168 80 371 88 584 3 82
2 89 -18 97 -29 12 -128 31 -133 26 -5 -5 -30 -99 -37 -141 -3 -16 -14 -82
-25 -145 -19 -112 -43 -293 -56 -435 -4 -38 -9 -72 -12 -75 -13 -13 -482 2
-506 17 -5 3 -7 26 -3 52 3 25 8 71 12 101 20 183 120 576 176 688 14 28 9 34
-67 65 l-60 25 -19 -36 c-51 -100 -181 -234 -340 -352 -110 -82 -373 -240
-398 -240 -25 0 -74 80 -99 162 -42 138 -23 335 45 446 105 173 289 306 531
385 77 25 198 56 240 62 11 1 61 7 110 14 50 6 101 13 115 15 65 8 402 -4 475
-18z m-805 -887 c-13 -45 -57 -307 -65 -389 -4 -36 -8 -66 -9 -67 -4 -5 -131
27 -201 51 -76 26 -215 94 -215 106 0 3 35 25 78 49 106 60 252 158 342 229
41 33 76 59 77 58 2 -1 -2 -18 -7 -37z m355 -655 c83 -2 155 -4 162 -4 21 0
-96 -204 -192 -334 -66 -89 -94 -122 -172 -203 l-53 -54 -1 33 c-3 83 -9 176
-14 203 -3 17 -8 108 -11 204 l-7 174 69 -7 c38 -4 137 -9 219 -12z m-401
-1011 c-5 -158 -14 -356 -18 -362 -2 -3 -7 -46 -10 -95 -4 -49 -9 -93 -11 -96
-2 -4 -7 -29 -10 -56 -13 -106 -77 -303 -126 -394 -79 -144 -192 -230 -304
-230 -53 0 -133 29 -164 59 -71 70 -103 151 -100 258 4 169 102 359 300 583
111 126 415 419 435 420 7 0 10 -29 8 -87z"/>
</g>
</svg>
